<svg xmlns="http://www.w3.org/2000/svg" width="1200" height="630" viewBox="0 0 1200 630" role="img" aria-labelledby="title desc">
  <title id="title">Monoranjan Das - Fullstack Developer</title>
  <desc id="desc">Social preview placeholder for Monoranjan Das portfolio.</desc>
  <defs>
    <linearGradient id="bg" x1="0" y1="0" x2="1" y2="1">
      <stop offset="0" stop-color="#071014"/>
      <stop offset="0.55" stop-color="#0c171d"/>
      <stop offset="1" stop-color="#091f25"/>
    </linearGradient>
    <linearGradient id="accent" x1="0" y1="0" x2="1" y2="1">
      <stop offset="0" stop-color="#39d6ff"/>
      <stop offset="1" stop-color="#66e0a3"/>
    </linearGradient>
    <filter id="glow" x="-40%" y="-40%" width="180%" height="180%">
      <feGaussianBlur stdDeviation="18" result="blur"/>
      <feMerge>
        <feMergeNode in="blur"/>
        <feMergeNode in="SourceGraphic"/>
      </feMerge>
    </filter>
  </defs>
  <rect width="1200" height="630" fill="url(#bg)"/>
  <g opacity="0.18">
    <path d="M0 120H1200M0 220H1200M0 320H1200M0 420H1200M0 520H1200" stroke="#89e2ff"/>
    <path d="M120 0V630M260 0V630M400 0V630M540 0V630M680 0V630M820 0V630M960 0V630M1100 0V630" stroke="#89e2ff"/>
  </g>
  <circle cx="946" cy="140" r="120" fill="#39d6ff" opacity="0.12" filter="url(#glow)"/>
  <circle cx="240" cy="486" r="150" fill="#66e0a3" opacity="0.1" filter="url(#glow)"/>
  <rect x="78" y="82" width="1044" height="466" rx="22" fill="#09151b" opacity="0.78" stroke="#89e2ff" stroke-opacity="0.22"/>
  <rect x="856" y="154" width="178" height="288" rx="20" fill="#071014" stroke="#89e2ff" stroke-opacity="0.32"/>
  <rect x="896" y="184" width="98" height="8" rx="4" fill="#d7e6ec" opacity="0.25"/>
  <rect x="890" y="242" width="110" height="16" rx="8" fill="url(#accent)" opacity="0.9"/>
  <rect x="890" y="278" width="92" height="10" rx="5" fill="#d7e6ec" opacity="0.22"/>
  <rect x="890" y="304" width="116" height="10" rx="5" fill="#d7e6ec" opacity="0.22"/>
  <rect x="890" y="330" width="78" height="10" rx="5" fill="#d7e6ec" opacity="0.22"/>
  <text x="130" y="246" fill="#f4fbff" font-family="Inter, Arial, sans-serif" font-size="72" font-weight="800">Monoranjan Das</text>
  <text x="132" y="318" fill="#66e0a3" font-family="Inter, Arial, sans-serif" font-size="34" font-weight="800">Fullstack Developer</text>
  <text x="132" y="382" fill="#d7e6ec" font-family="Inter, Arial, sans-serif" font-size="28">Symfony | Nuxt | Redis | Docker | React Native</text>
  <rect x="132" y="424" width="348" height="54" rx="10" fill="url(#accent)"/>
  <text x="158" y="460" fill="#041014" font-family="Inter, Arial, sans-serif" font-size="22" font-weight="800">Self-taught product builder</text>
</svg>
